<?xml version="1.0" standalone="no"?><!DOCTYPE svg PUBLIC "-//W3C//DTD SVG 1.1//EN" "http://www.w3.org/Graphics/SVG/1.1/DTD/svg11.dtd"><svg t="1727971868250" class="icon" viewBox="0 0 1024 1024" version="1.1" xmlns="http://www.w3.org/2000/svg" p-id="11780" xmlns:xlink="http://www.w3.org/1999/xlink" width="200" height="200"><path d="M513.28796445 2.27441778c-280.64540445 0-508.12586667 227.49525333-508.12586667 508.12017777 0 280.63061333 227.48046222 508.15431111 508.12586667 508.15431112 280.62151111 0 508.13041778-227.52369778 508.13041777-508.15431112s-227.50890667-508.12017778-508.13041777-508.12017777v0zM657.72999111 637.89738667c-11.73048889 7.28974222-22.79765333 14.17329778-32.76686222 21.22524444-52.06243555 36.87879111-90.35776 84.57671111-93.84504889 98.25621334-2.01272889 7.92348445-9.07946667 13.49063111-17.26350222 13.63626666h-0.30947556c-8.03953778 0-15.14040889-5.30659555-17.39889777-13.03552-4.54200889-15.50336-40.79160889-62.60167111-93.97134223-97.44384-8.39224889-5.48067555-17.45692445-10.95111111-27.03018667-16.71281778-55.57361778-33.50641778-124.70158222-75.17866667-124.10083555-165.28952888 0.78392889-110.99704889 71.05763555-169.05216 140.0832-169.05216 35.47022222 0 68.35313778 14.07089778 95.01127111 39.42286222v-0.01024c0 0 27.14055111 25.69443555 55.50648889 0v0c26.55118222-23.95363555 59.33738667-37.48295111 94.08739555-37.48295112 37.21216 0 71.73916445 15.45898667 97.22652445 43.50976 27.49895111 30.27512889 42.21838222 72.65393778 42.55744 122.5682489 0.59960889 86.76807111-65.03992889 127.59381333-117.78389333 160.40846222v0z" fill="#DB2777" p-id="11781"></path></svg>